<svg xmlns="http://www.w3.org/2000/svg" style="display:none">
  <symbol id="icon-car" viewBox="0 0 24 24">
    <path fill="currentColor" d="M5 11l1.5-4.5A3 3 0 0 1 9.4 4h5.2a3 3 0 0 1 2.9 2.5L19 11h1a2 2 0 0 1 2 2v4a1 1 0 0 1-1 1h-1a1 1 0 0 1-1-1v-1H5v1a1 1 0 0 1-1 1H3a1 1 0 0 1-1-1v-4a2 2 0 0 1 2-2h1Zm2.2-4.1L6.3 11h11.4l-.9-4.1A1.5 1.5 0 0 0 14.6 6H9.4a1.5 1.5 0 0 0-1.2.9ZM6.5 16.5A1.5 1.5 0 1 0 6.5 13a1.5 1.5 0 0 0 0 3.5Zm11 0A1.5 1.5 0 1 0 17.5 13a1.5 1.5 0 0 0 0 3.5Z"/>
  </symbol>
  <symbol id="icon-gear" viewBox="0 0 24 24">
    <path fill="currentColor" d="M9.4 1.7 8.6 4.2a7.8 7.8 0 0 0-1.9 1.1l-2.4-.8-1.7 3 2 1.7a8 8 0 0 0-.1 1.6 8 8 0 0 0 .1 1.6l-2 1.7 1.7 3 2.4-.8c.6.5 1.2.8 1.9 1.1l.8 2.5h3.2l.8-2.5c.7-.3 1.3-.7 1.9-1.1l2.4.8 1.7-3-2-1.7c.1-.5.1-1 .1-1.6s0-1.1-.1-1.6l2-1.7-1.7-3-2.4.8c-.6-.5-1.2-.8-1.9-1.1l-.8-2.5H9.4Zm2.2 7.3a3 3 0 1 1 0 6.1 3 3 0 0 1 0-6.1Z"/>
  </symbol>
  <symbol id="icon-search" viewBox="0 0 24 24">
    <path fill="currentColor" d="M10 2a8 8 0 1 1 0 16 8 8 0 0 1 0-16Zm0 2a6 6 0 1 0 0 12 6 6 0 0 0 0-12Zm11.707 16.293-4.4-4.4-1.414 1.414 4.4 4.4a1 1 0 0 0 1.414-1.414Z"/>
  </symbol>
  <symbol id="icon-user" viewBox="0 0 24 24">
    <path fill="currentColor" d="M12 12a5 5 0 1 0-5-5 5 5 0 0 0 5 5Zm-7 8a7 7 0 1 1 14 0v2H5Z"/>
  </symbol>
  <symbol id="icon-help" viewBox="0 0 24 24">
    <path fill="currentColor" d="M12 2a10 10 0 1 0 10 10A10 10 0 0 0 12 2Zm1 15h-2v-2h2Zm1.07-7.75-.9.92A2.51 2.51 0 0 0 12.5 12h-1v-.5a3.5 3.5 0 0 1 1.02-2.48l1.24-1.25a1.75 1.75 0 1 0-2.96-1.22H9a3.75 3.75 0 1 1 6.5 2.72Z"/>
  </symbol>
  <symbol id="icon-store" viewBox="0 0 24 24">
    <path fill="currentColor" d="M4 4h16l2 6H2l2-6Zm0 8h16v8a2 2 0 0 1-2 2H6a2 2 0 0 1-2-2v-8Zm4 2v6h2v-6H8Zm6 0v6h2v-6h-2Z"/>
  </symbol>
  <!-- Mobile nav icons -->
  <symbol id="icon-menu" viewBox="0 0 24 24">
    <path fill="currentColor" d="M3 6h18v2H3V6Zm0 5h18v2H3v-2Zm0 5h18v2H3v-2Z"/>
  </symbol>
  <symbol id="icon-close" viewBox="0 0 24 24">
    <path fill="currentColor" d="M18.3 5.71 12 12.01 5.7 5.7 4.29 7.11 10.6 13.4l-6.3 6.29 1.41 1.41 6.29-6.3 6.29 6.3 1.41-1.41-6.3-6.29 6.3-6.29-1.41-1.41Z"/>
  </symbol>
  <symbol id="icon-fuel" viewBox="0 0 24 24">
    <path fill="currentColor" d="M6 3h6a2 2 0 0 1 2 2v14H4V5a2 2 0 0 1 2-2Zm8 5h1a2 2 0 0 1 2 2v7a2 2 0 1 0 4 0v-8a3 3 0 0 0-.9-2.1l-2.1-2.1A2 2 0 0 0 16 7h-2Zm-5 9a2 2 0 1 0 0-4 2 2 0 0 0 0 4Z"/>
  </symbol>
  <symbol id="icon-users" viewBox="0 0 24 24">
    <path fill="currentColor" d="M12 12a5 5 0 1 0-5-5 5 5 0 0 0 5 5Zm-7 8a7 7 0 1 1 14 0v2H5Z"/>
  </symbol>
  <symbol id="icon-arrow-right" viewBox="0 0 24 24">
    <path fill="currentColor" d="M13 5l7 7-7 7M5 12h14" stroke="currentColor" stroke-width="2" fill="none" stroke-linecap="round" stroke-linejoin="round"/>
  </symbol>
  <!-- Social icons -->
  <symbol id="icon-facebook" viewBox="0 0 24 24">
    <path fill="currentColor" d="M22.675 0h-21.35C.596 0 0 .597 0 1.333v21.333C0 23.403.596 24 1.325 24h11.495v-9.294H9.69V11.01h3.13V8.41c0-3.1 1.893-4.788 4.659-4.788 1.325 0 2.463.099 2.795.143v3.24l-1.918.001c-1.504 0-1.796.715-1.796 1.764v2.316h3.59l-.467 3.696h-3.123V24h6.116C23.404 24 24 23.403 24 22.667V1.333C24 .597 23.404 0 22.675 0z"/>
  </symbol>
  <symbol id="icon-instagram" viewBox="0 0 24 24">
    <path fill="currentColor" d="M7 2h10a5 5 0 0 1 5 5v10a5 5 0 0 1-5 5H7a5 5 0 0 1-5-5V7a5 5 0 0 1 5-5Zm0 2a3 3 0 0 0-3 3v10a3 3 0 0 0 3 3h10a3 3 0 0 0 3-3V7a3 3 0 0 0-3-3H7Zm5 3a5 5 0 1 1 0 10 5 5 0 0 1 0-10Zm0 2a3 3 0 1 0 0 6 3 3 0 0 0 0-6Zm6.5-2a1.5 1.5 0 1 1 0 3 1.5 1.5 0 0 1 0-3Z"/>
  </symbol>
  <symbol id="icon-x" viewBox="0 0 24 24">
    <path fill="currentColor" d="M18.244 2H21l-6.561 7.5L22 22h-7.5l-4.94-6.492L3.5 22H1l7.2-8.236L2 2h7.5l4.53 6.038L18.244 2zm-1.313 18h1.465L7.34 4H5.875l11.056 16z"/>
  </symbol>
  <symbol id="icon-linkedin" viewBox="0 0 24 24">
    <path fill="currentColor" d="M4.98 3.5a2.5 2.5 0 1 1-.002 5.002A2.5 2.5 0 0 1 4.98 3.5zM3 9h4v12H3V9zm7 0h3.8v1.7h.054c.53-1.004 1.83-2.06 3.766-2.06C21.2 8.64 23 10.14 23 13.2V21H19v-6.6c0-1.58-.566-2.66-1.982-2.66-1.081 0-1.724.73-2.005 1.436-.104.253-.13.604-.13.957V21H10V9z"/>
  </symbol>
</svg>


